# xmcd
#
# Track frame offsets: 
#        150
#        40851
#        63691
#        85146
#        117936
#        143434
#        169306
#        189604
#        223559
#
# Disc length: 3674 seconds
#
# Revision: 0
# Processed by: cddbd v1.5.2PL0 Copyright (c) Steve Scherf et al.
# Submitted via: ExactAudioCopy v1.3
#
DISCID=7e0e5809
DTITLE=Jimmy Dawkins - Vol. 2  I Want To Know
DYEAR=1999
DGENRE=Chicago Blues
TTITLE0=I Want To Know
TTITLE1=Rock Me Baby
TTITLE2=I Wonder Why
TTITLE3=Cold Sweet Blues
TTITLE4=Driving Wheel
TTITLE5=Will My Baby Be Home Tonight
TTITLE6=Way She Walks
TTITLE7=I've Been Mistreated
TTITLE8=Are You Ready
EXTD=
EXTT0=
EXTT1=
EXTT2=
EXTT3=
EXTT4=
EXTT5=
EXTT6=
EXTT7=
EXTT8=
PLAYORDER=
